/* XPM */
static char *_b1f78fca940445bd9fbe94b73d66c00pf0eMZ2EpiYn6Srd[] = {
/* columns rows colors chars-per-pixel */
"32 32 6 1 ",
"  c #3E2723",
". c #5D4037",
"X c #6D4C41",
"o c #FFB300",
"O c #2196F3",
"+ c white",
/* pixels */
"oooooooooooooooooooooooooooooooo",
"ooooooooooOooooooooooooooooooooo",
"oooooooooOOOoooooooooooooooooooo",
"ooooooooOOOOOooooooooooooooooooo",
"oooooooOOO+OOOoooooooooooooooooo",
"ooooooOOO+O+OOOooooooooooooooooo",
"oooooOOO+OO+OOOOoooooooooooooooo",
"ooooOOO+O++OOOOOOooooooooooooooo",
"oooOOO+OO+OOOOOOOOoooooooooooooo",
"ooooOOO++OOOOOOO OOooooooooooooo",
"oooooOOOOOOO.O.O  OOoooooooooooo",
"ooooooOOO.OOOOOOX  OOooooooooooo",
"oooooooOOOOO.OOOXX  OOoooooooooo",
"ooooooooOO.OOOOO.XX  OOooooooooo",
"oooooooooOOOOO.O..XX  OOoooooooo",
"ooooooooooOOOOOO...XX  OOooooooo",
"oooooooooooOO.OO....XX  OOoooooo",
"ooooooooooooOOOO.....XX  OOooooo",
"oooooooooooooOOO......XX  OOoooo",
"ooooooooooooooOO.......XX  OOooo",
"oooooooooooooooOO.......XXOOoooo",
"ooooooooooooooooOO.......OOooooo",
"oooooooooooooooooOO.....OOoooooo",
"ooooooooooooooooooOO...OOooooooo",
"oooooooooooooooooooOO.OOoooooooo",
"ooooooooooooooooooooOOOooooooooo",
"oooooooooooooooooooooOoooooooooo",
"oooooooooooooooooooooooooooooooo",
"oooooooooooooooooooooooooooooooo",
"oooooooooooooooooooooooooooooooo",
"oooooooooooooooooooooooooooooooo",
"oooooooooooooooooooooooooooooooo"
};
