/* XPM */
static char *result[] = {
/* columns rows colors chars-per-pixel */
"32 32 13 1 ",
"  c black",
". c gray13",
"X c gray46",
"o c #D50000",
"O c red",
"+ c #E62020",
"@ c #F44336",
"# c #FFB300",
"$ c #FFEB3B",
"% c gray62",
"& c gray74",
"* c #EEEEEE",
"= c white",
/* pixels */
"################################",
"################################",
"################################",
"################################",
"################################",
"################################",
"###################  #+#++#+####",
"################  #% #+###+++###",
"############### X% X +++#OO#####",
"############### X%X%+++##OO+#+##",
"############### &%O&**OO+OO++###",
"############## X&%++&o+OOOOo+++#",
"############## X&&%**Oo+++O++  +",
"############## &&+*++O+Oo+++$   ",
"######        %%&*  OO++oo++$   ",
"####  XXXXXXX *%&   $++OoO+o##+#",
"### * &%%%%%* %*&   $OOOO+o++###",
"## ** &&%&%*****&**OOOoO++o+####",
"# *%  %&&&&&&&&&&*OOOO+++O+#####",
" *% ************&&&& # ++O+OOO##",
"#   ***&.&&&**%%%.&& #  #O#  ###",
"### %*&  ..&**%..**  #  ###  ###",
"### &* # %% **.# %*##   ###  ###",
"## &**### & ** # &*# =@ ###  ###",
"## ** ### & ** # &*     ###  ###",
"## ** ####  ** # &*#######   ###",
"## ***###### ** # * ##### =@ ###",
"###   #######   ##  ####     ###",
"################################",
"################################",
"################################",
"################################"
};
