/* XPM */
static char *result[] = {
/* columns rows colors chars-per-pixel */
"32 32 13 1 ",
"  c black",
". c gray13",
"X c gray46",
"o c #D50000",
"O c red",
"+ c #E62020",
"@ c #F44336",
"# c #FFB300",
"$ c #FFEB3B",
"% c gray62",
"& c gray74",
"* c #EEEEEE",
"= c white",
/* pixels */
"################################",
"################################",
"################################",
"################################",
"################################",
"################################",
"####+#++#+#  ###################",
"###+++###+# %#  ################",
"#####OO#+++ X %X ###############",
"##+#+OO##+++%X%X ###############",
"###++OO+OO**&O%& ###############",
"#+++oOOOO+o&++%&X ##############",
"+  ++O+++oO**%&&X ##############",
"   $+++oO+O++*+&& ##############",
"   $++oo++OO  *&%%        ######",
"#+##o+OoO++$   &%* XXXXXXX  ####",
"###++o+OOOO$   &*% *%%%%%& * ###",
"####+o++OoOOO**&*****%&%&& ** ##",
"#####+O+++OOOO*&&&&&&&&&&%  %* #",
"##OOO+O++ # &&&&************ %* ",
"###  #O#  # &&.%%%**&&&.&***   #",
"###  ###  #  **..%**&..  &*% ###",
"###  ###   ##*% #.** %% # *& ###",
"###  ### @= #*& # ** & ###**& ##",
"###  ###     *& # ** & ### ** ##",
"###   #######*& # **  #### ** ##",
"### @= ##### * # ** ######*** ##",
"###     ####  ##   #######   ###",
"################################",
"################################",
"################################",
"################################"
};
