/* XPM */
static char *result[] = {
/* columns rows colors chars-per-pixel */
"32 32 9 1 ",
"  c black",
". c gray13",
"X c gray46",
"o c #E53935",
"O c #FFB300",
"+ c gray62",
"@ c gray74",
"# c gray88",
"$ c #EEEEEE",
/* pixels */
"OOOOOOOOOOOOOOOOOOOOOOOOO  OOOOO",
"OOOOOOOOOOOOOOOOOOOOO  O + OOOOO",
"OOOOOOOOOOOOOOOOOOOO X+  X OOOOO",
"OOOOOOOOOOOOOOOOOOOO X+X++  OOOO",
"OOOOOOOOOOOOOOOOOOOO XX@@$+ OOOO",
"OOOOOOOOOOOOOOOOOOOO @+@ @$$ OOO",
"OOOOOOOOOOOOOOOOOOO X@+$@ @$$  O",
"OOOOOOOOOOOOOOOOOOO X@@+$$$$$  O",
"OOOOOOOOOOOOOOOOOOO @@$$$$@$@@ O",
"OOOOOOOOOOOOOOOOOO ++@$$$$@   oO",
"OOOOOOOOOOOOOOOO . $+@$$$@X OOOO",
"OOOOOOOOOOOOOOO XX +$@$$$@X OOOO",
"OOOOOOOOOOOOOO XX+$$$@$$$@X OOOO",
"OOOOOOOOOOOOO X+@@@@@@$$$@X OOOO",
"  OOOOOOOOO  @$+$$$$$$$$$@ OOOOO",
" X  OOOOOO $@@$$$$$$$$@@@@  OOOO",
" X+@  OOO $@@$$$$$$$$@@ @@ +  OO",
"O  +++ O +@@@$$$$$$$$@@ @@@+++ O",
"OOO     ++@@@$$$$$$$$$@   @@@+ O",
"OOOOOO +X@@@@$$$@$$$@@@+ X  @+ O",
"OOOOOO  @@$$$@@@@$@@+X ++XX @@ O",
"OOOOO X @$$$@++XXXXX      X @@ O",
"OOOO @@$$$$@+       OOOOO XX @# ",
"OO  @@@@@$@++ OOOOOOOOOOO +X @# ",
"O X@@@$$@@@   OOOOOOOOOOOO + @# ",
"O X@@++++  OOOOOOOOOOOOOOO +   O",
"O X +     OOOOOOOOOOOOOOOO  OOOO",
" X@ + OOOOOOOOOOOOOOOOOOOOOOOOOO",
" X @+ OOOOOOOOOOOOOOOOOOOOOOOOOO",
" X @+ OOOOOOOOOOOOOOOOOOOOOOOOOO",
"   @X OOOOOOOOOOOOOOOOOOOOOOOOOO",
"OO   OOOOOOOOOOOOOOOOOOOOOOOOOOO"
};
