/* XPM */
static char *result[] = {
/* columns rows colors chars-per-pixel */
"32 32 9 1 ",
"  c black",
". c gray13",
"X c gray46",
"o c #E53935",
"O c #FFB300",
"+ c gray62",
"@ c gray74",
"# c gray88",
"$ c #EEEEEE",
/* pixels */
"OOOOO  OOOOOOOOOOOOOOOOOOOOOOOOO",
"OOOOO + O  OOOOOOOOOOOOOOOOOOOOO",
"OOOOO X  +X OOOOOOOOOOOOOOOOOOOO",
"OOOO  ++X+X OOOOOOOOOOOOOOOOOOOO",
"OOOO +$@@XX OOOOOOOOOOOOOOOOOOOO",
"OOO $$@ @+@ OOOOOOOOOOOOOOOOOOOO",
"O  $$@ @$+@X OOOOOOOOOOOOOOOOOOO",
"O  $$$$$+@@X OOOOOOOOOOOOOOOOOOO",
"O @@$@$$$$@@ OOOOOOOOOOOOOOOOOOO",
"Oo   @$$$$@++ OOOOOOOOOOOOOOOOOO",
"OOOO X@$$$@+$ . OOOOOOOOOOOOOOOO",
"OOOO X@$$$@$+ XX OOOOOOOOOOOOOOO",
"OOOO X@$$$@$$$+XX OOOOOOOOOOOOOO",
"OOOO X@$$$@@@@@@+X OOOOOOOOOOOOO",
"OOOOO @$$$$$$$$$+$@  OOOOOOOOO  ",
"OOOO  @@@@$$$$$$$$@@$ OOOOOO  X ",
"OO  + @@ @@$$$$$$$$@@$ OOO  @+X ",
"O +++@@@ @@$$$$$$$$@@@+ O +++  O",
"O +@@@   @$$$$$$$$$@@@++     OOO",
"O +@  X +@@@$$$@$$$@@@@X+ OOOOOO",
"O @@ XX++ X+@@$@@@@$$$@@  OOOOOO",
"O @@ X      XXXXX++@$$$@ X OOOOO",
" #@ XX OOOOO       +@$$$$@@ OOOO",
" #@ X+ OOOOOOOOOOO ++@$@@@@@  OO",
" #@ + OOOOOOOOOOOO   @@@$$@@@X O",
"O   + OOOOOOOOOOOOOOO  ++++@@X O",
"OOOO  OOOOOOOOOOOOOOOO     + X O",
"OOOOOOOOOOOOOOOOOOOOOOOOOO + @X ",
"OOOOOOOOOOOOOOOOOOOOOOOOOO +@ X ",
"OOOOOOOOOOOOOOOOOOOOOOOOOO +@ X ",
"OOOOOOOOOOOOOOOOOOOOOOOOOO X@   ",
"OOOOOOOOOOOOOOOOOOOOOOOOOOO   OO"
};
