/* XPM */
static char *_f2deed49bf54f8ccf42d37a7262ab14rvuuq4w1OdCDix5O[] = {
/* columns rows colors chars-per-pixel */
"32 32 8 1 ",
"  c black",
". c gray13",
"X c gray46",
"o c #E53935",
"O c #FFB300",
"+ c gray62",
"@ c gray74",
"# c #EEEEEE",
/* pixels */
"OOOOOOOOOOOOOOOOOOOOOOOOOOOOOOOO",
"OOOOOOOOOOOOOOOOOOOOOOOOOOOOOOOO",
"OOOOOOOOOOOOOOOOOOOOOOOOOOOOOOOO",
"OOOOOOOOOOOOOOOOOOOOOOOOOOOOOOOO",
"OOOOOOOOOOOOOOOOOOOOOOOOOOOOOOOO",
"OOOOOOOOOOOOOOOOOOOOOOOO  OOOOOO",
"OOOOOOOOOOOOOOOOOOOO  O + OOOOOO",
"OOOOOOOOOOOOOOOOOOO X+  X OOOOOO",
"OOOOOOOOOOOOOOOOOOO X+X++  OOOOO",
"OOOOOOOOOOOOOOOOOOO XX@@#+ OOOOO",
"OOOOOOOOOOOOOOOOOOO @+@ @## OOOO",
"OOOOOOOOOOOOOOOOOO X@+#@ @##  OO",
"OOOOOOOOOOOOOOOOOO X@@+#####  OO",
"OOOOOOOOOOOOOOOOOO @@####@#@@ OO",
"OOOOOOOOOO        ++@####@   oOO",
"OOOOOOO   XXXXXXX #+@###@X OOOOO",
"OOOOOO # +@+++++# +#@###@X OOOOO",
"OOOOO ## @@@+@+#####@###@X OOOOO",
"OOOO #+  @+@@@@@@@@@@#@#@X OOOOO",
"OOO #+ ##@##########@@@@@ OOOOOO",
"OOOO   ####@.@@@##+++.@@@ OOOOOO",
"OOOOOO +##@  ..@##+..##   OOOOOO",
"OOOOOO @#@ O ++ ##.O +# OOOOOOOO",
"OOOOOO @#@ O ++ ## O +# OOOOOOOO",
"OOOOO @## OOO @ ## O @# OOOOOOOO",
"OOOOO ## OOOO @ ## O @# OOOOOOOO",
"OOOOO ## OOOOO  ## O @# OOOOOOOO",
"OOOOO ### OOOOOO ## O ## OOOOOOO",
"OOOOOO   OOOOOOOO   OO   OOOOOOO",
"OOOOOOOOOOOOOOOOOOOOOOOOOOOOOOOO",
"OOOOOOOOOOOOOOOOOOOOOOOOOOOOOOOO",
"OOOOOOOOOOOOOOOOOOOOOOOOOOOOOOOO"
};
