/* XPM */
static char *_1b90415efc941aad78b5f0d684ce985ddIJ2nyfQAWUrhma[] = {
/* columns rows colors chars-per-pixel */
"32 32 8 1 ",
"  c black",
". c gray13",
"X c gray46",
"o c #E53935",
"O c #FFB300",
"+ c gray62",
"@ c gray74",
"# c #EEEEEE",
/* pixels */
"OOOOOOOOOOOOOOOOOOOOOOOOOOOOOOOO",
"OOOOOOOOOOOOOOOOOOOOOOOOOOOOOOOO",
"OOOOOOOOOOOOOOOOOOOOOOOOOOOOOOOO",
"OOOOOOOOOOOOOOOOOOOOOOOOOOOOOOOO",
"OOOOOOOOOOOOOOOOOOOOOOOOOOOOOOOO",
"OOOOOO  OOOOOOOOOOOOOOOOOOOOOOOO",
"OOOOOO + O  OOOOOOOOOOOOOOOOOOOO",
"OOOOOO X  +X OOOOOOOOOOOOOOOOOOO",
"OOOOO  ++X+X OOOOOOOOOOOOOOOOOOO",
"OOOOO +#@@XX OOOOOOOOOOOOOOOOOOO",
"OOOO ##@ @+@ OOOOOOOOOOOOOOOOOOO",
"OO  ##@ @#+@X OOOOOOOOOOOOOOOOOO",
"OO  #####+@@X OOOOOOOOOOOOOOOOOO",
"OO @@#@####@@ OOOOOOOOOOOOOOOOOO",
"OOo   @####@++        OOOOOOOOOO",
"OOOOO X@###@+# XXXXXXX   OOOOOOO",
"OOOOO X@###@#+ #+++++@+ # OOOOOO",
"OOOOO X@###@#####+@+@@@ ## OOOOO",
"OOOOO X@#@#@@@@@@@@@@+@  +# OOOO",
"OOOOOO @@@@@##########@## +# OOO",
"OOOOOO @@@.+++##@@@.@####   OOOO",
"OOOOOO   ##..+##@..  @##+ OOOOOO",
"OOOOOOOO #+ O.## ++ O @#@ OOOOOO",
"OOOOOOOO #+ O ## ++ O @#@ OOOOOO",
"OOOOOOOO #@ O ## @ OOO ##@ OOOOO",
"OOOOOOOO #@ O ## @ OOOO ## OOOOO",
"OOOOOOOO #@ O ##  OOOOO ## OOOOO",
"OOOOOOO ## O ## OOOOOO ### OOOOO",
"OOOOOOO   OO   OOOOOOOO   OOOOOO",
"OOOOOOOOOOOOOOOOOOOOOOOOOOOOOOOO",
"OOOOOOOOOOOOOOOOOOOOOOOOOOOOOOOO",
"OOOOOOOOOOOOOOOOOOOOOOOOOOOOOOOO"
};
