/* XPM */
static char *d05260b6cbd644d691479f98aaba8143GmpswS03ndHIX7QA[] = {
/* columns rows colors chars-per-pixel */
"32 32 2 1 ",
"  c #FFB300",
". c #FFCA28",
/* pixels */
"   ...                          ",
" ..   ..               ...      ",
" .     .              .   .     ",
".       .            .     .    ",
".       .            .     .    ",
".       .            .     .    ",
" .     .              .   .     ",
" ..   ..               ...      ",
"   ...                          ",
"                                ",
"                                ",
"                .....           ",
"               .     .          ",
"              .       .         ",
"             .         .        ",
"            .           .       ",
"            .           .       ",
"            .           .       ",
"            .           .       ",
"            .           .       ",
"             .         .        ",
"              .       .         ",
"               .     .          ",
"     ...        .....           ",
"    .   .                       ",
"   .     .                      ",
"   .     .                      ",
"   .     .                      ",
"    .   .             .         ",
"     ...             . .        ",
"                      .         ",
"                                "
};
