/* XPM */
static char *_c121c06110a4efdf0be2e9660f5aa5bXJFlh9Fuek7qAKSj[] = {
/* columns rows colors chars-per-pixel */
"32 32 5 1 ",
"  c black",
". c #D50000",
"X c #FFAB00",
"o c #FFB300",
"O c gray62",
/* pixels */
"oooooooooooooooooooooooooooooooo",
"oooooooooooooooooooooooooooooooo",
"oooooooooooooooooooooooooooooooo",
"oooooooooooooooooooooooooooooooo",
"oooooooooooooooooooooooooooooooo",
"oooooooooooooooooooooooooooooooo",
"oooooooooooooooooooooooooooooooo",
"oooooooooooooooooooooooooooooooo",
"oooooooooooooooooooooooooooooooo",
"oooooooooooooooooooooooooooooooo",
"oooooooooooooooooooooooooooooooo",
"oooooooooooooooooooooooooooooooo",
"o       oooooooooooooooo       o",
"o       OOOOOOOooOOOOOOO       o",
"o .   . OOOOOOOooOOOOOOO .   . X",
"o  . .  OOOOOOOooOOOOOOO  . .  X",
"o   .   OOOOOOOooOOOOOOO   .   X",
"o  . .  OOOOOOOooOOOOOOO  . .  X",
"o .   . OOOOOOOooOOOOOOO .   . X",
"o       OOOOOOOooOOOOOOO       X",
"o       OOOOOOOooOOOOOOO       X",
"o       OOOOOOOooOOOOOOO       X",
"o       OOOOOOOooOOOOOOO       o",
"o       OOOOOOOooOOOOOOO       o",
"o       OOOOOOOooOOOOOOO       o",
"o       OOOOOOOooOOOOOOO       o",
"o       OOOOOOOooOOOOOOO       o",
"o       OOOOOOOooOOOOOOO       o",
"o       OOOOOOOooOOOOOOO       o",
"o       oooooooooooooooo       o",
"o       oooooooooooooooo       o",
"oooooooooooooooooooooooooooooooo"
};
