/* XPM */
static char *_187a70a0fdc432ce2df5b592aaa15f0FZoTTFWBCEcGc0l0[] = {
/* columns rows colors chars-per-pixel */
"32 32 5 1 ",
"  c black",
". c #00C853",
"X c #FFAB00",
"o c #FFB300",
"O c gray62",
/* pixels */
"oooooooooooooooooooooooooooooooo",
"oooooooooooooooooooooooooooooooo",
"oooooooooooooooooooooooooooooooo",
"oooooooooooooooooooooooooooooooo",
"oooooooooooooooooooooooooooooooo",
"oooooooooooooooooooooooooooooooo",
"oooooooooooooooooooooooooooooooo",
"oooooooooooooooooooooooooooooooo",
"oooooooooooooooooooooooooooooooo",
"oooooooooooooooooooooooooooooooo",
"oooooooooooooooooooooooooooooooo",
"oooooooooooooooooooooooooooooooo",
"o       oooooooooooooooo       o",
"o   .   OOOOOOOooOOOOOOO   .   o",
"o   ..  OOOOOOOooOOOOOOO  ..   o",
"o   ... OOOOOOOooOOOOOOO ...   o",
"o   ..  OOOOOOOooOOOOOOO  ..   o",
"o   .   OOOOOOOooOOOOOOO   .   o",
"o       OOOOOOOooOOOOOOO       o",
"o       OOOOOOOooOOOOOOO       o",
"o       OOOOOOOooOOOOOOO       o",
"o       OOOOOOOooOOOOOOO       o",
"o       OOOOOOOooOOOOOOO       o",
"o       OOOOOOOooOOOOOOO       o",
"o       OOOOOOOooOOOOOOO       o",
"o       OOOOOOOooOOOOOOO       o",
"o       OOOOOOOooOOOOOOO       o",
"o       OOOOOOOooOOOOOOO       o",
"o       OOOOOOOooOOOOOOO       o",
"o       oooooooooooooooo       o",
"o       oooooooooooooooo       o",
"oooooooooooooooooooooooooooooooo"
};
