/* XPM */
static char *_3d05c70dbba47daf48b898f5a4c5a73M8oNrWHo7FPatPrN[] = {
/* columns rows colors chars-per-pixel */
"32 32 9 1 ",
"  c black",
". c #5D4037",
"X c #C62828",
"o c #FFB300",
"O c #FFC107",
"+ c #FFEB3B",
"@ c #03A9F4",
"# c #BCAAA4",
"$ c white",
/* pixels */
"oooooooooooooooooooooooooooooooo",
"oooooooooooooooooooooooooooooooo",
"oooooooooooooooooooooooooooooooo",
"oooooooooooooooooooooooooooooooo",
"oooooooooooooooooooooooooooooooo",
"oooooooooooo.........ooooooooooo",
"ooooooooooo..       ..oooooooooo",
"ooooooooooo.. #.$#. ..oooooooooo",
"ooooooooooo.. ..$.. ..oooooooooo",
"ooooooooooo.. $$$$$ ..oooooooooo",
"ooooooooooo.. $XXX$ ..oooooooooo",
"oooooo  ooo.+       +.ooo  ooooo",
"ooooo   +    +++++++        oooo",
"ooooo   +    $     +        oooo",
"ooooo   +    $     +        oooo",
"ooooooooooo..$     ++.oooooooooo",
"ooooooooooo.. $   $++.oooooooooo",
"ooooooooooooo  +O+  +ooooooooooo",
"ooooooooooooo  O@O  oooooooooooo",
"oooooooooooo   +O+   ooooooooooo",
"oooooooooooo         ooooooooooo",
"oooooooooooo   ooo   ooooooooooo",
"oooooooooooo   ooo   ooooooooooo",
"oooooooooooo   ooo   ooooooooooo",
"oooooooooooo   ooo   ooooooooooo",
"ooooooooooo$$$$ooo$$$$oooooooooo",
"oooooooooo     ooo     ooooooooo",
"ooooooooo  $X  ooo X$   oooooooo",
"oooooooo   $X  ooo X$    ooooooo",
"ooooooo        ooo        oooooo",
"oooooooooooooooooooooooooooooooo",
"oooooooooooooooooooooooooooooooo"
};
