/* XPM */
static char *a4d2ea93ff5e4d70a61d7d2853ced2dbOLzhouTPL81ZypRU[] = {
/* columns rows colors chars-per-pixel */
"32 32 12 1 ",
"  c black",
". c #3E2723",
"X c #2E7D32",
"o c #6D4C41",
"O c #795548",
"+ c #8D6E63",
"@ c #388E3C",
"# c #558B2F",
"$ c #689F38",
"% c #43A047",
"& c #FFAB00",
"* c #FFB300",
/* pixels */
"********************************",
"********************************",
"********************************",
"********************************",
"********************************",
"********************************",
"**********X************XXX******",
"*********XXX*****X*****XX@X*****",
"********XX#XX**XXX****X@%@X*****",
"*******XX#%#XXX$@@X**XX%@@X*****",
"*******X###%#X@O%#@XXX@@@@X*****",
"*******########OO#@@%X$O@X******",
"********#$#####O##@@@%$O@X******",
"*********$O#*$$O#@$@@@XOXX******",
"**********O**$OO*@$O@@*O********",
"****+++&**O****O***O***O*+++****",
"****+O+..................+O+****",
"****+O+..................+O+****",
"****+O++++++++++++++++++++O+****",
"****+OOOOOOOOOOOOOOOOOOOOOO+****",
"****+OOOOOOOOOOOOOOOOOOOOOO+****",
"****+OOoooooooooooooooooooO+****",
"****+OOo+ ++ ++ ++ ++ ++ oO+****",
"****+OOo+ ++ ++ ++ ++ ++ oO+****",
"****+OOoooooooooooooooooooO+****",
"****+OOOOOOOOOOOOOOOOOOOOOO+****",
"****+OOOOOOOOOOOOOOOOOOOOOO+****",
"****++++++++++++++++++++++++****",
"********************************",
"********************************",
"********************************",
"********************************"
};
